<svg width="500" height="500" viewBox="0 0 500 500" fill="none" xmlns="http://www.w3.org/2000/svg">
<g clip-path="url(#clip0_3046_2105)">
<rect width="500" height="500" rx="8" fill="#5F2781"/>
<path fill-rule="evenodd" clip-rule="evenodd" d="M178.146 332.197H215.55C217.202 332.197 218.301 332.75 218.848 334.396L232.604 356.399C233.703 358.597 233.156 360.802 231.504 362.448C230.952 363 229.853 363 229.306 363H123.135C120.937 363 118.732 361.348 118.732 358.597V339.892C118.732 338.793 119.285 337.693 119.832 337.141L174.29 274.43C175.941 272.778 175.389 270.027 173.737 268.381C173.184 267.828 172.085 267.282 170.986 267.282H125.328C123.129 267.282 120.925 265.63 120.925 262.879V240.876C120.925 238.677 122.577 236.473 125.328 236.473H226.549C228.747 236.473 230.952 238.124 230.952 240.876V259.028C230.952 260.127 230.399 261.227 229.852 261.779L175.395 324.49C173.743 326.142 174.295 328.893 175.947 330.539C176.5 331.639 177.047 332.191 178.146 332.191" fill="white"/>
<path fill-rule="evenodd" clip-rule="evenodd" d="M340.4 298.634C340.4 279.382 328.849 266.179 312.342 266.179C295.836 266.179 284.837 279.935 284.837 298.634C284.837 317.334 296.388 331.642 312.342 331.642C328.296 331.642 340.4 317.886 340.4 298.634ZM381.108 299.734C381.108 337.691 358.553 362.997 323.347 362.997C311.796 362.997 300.791 359.147 291.991 351.993C290.339 350.341 287.588 350.894 285.942 352.545C285.39 353.098 284.843 354.197 284.843 355.297V357.495C284.843 359.694 283.191 361.898 280.44 361.898H248.532C246.333 361.898 244.129 360.246 244.129 357.495V193.563C244.129 191.365 245.781 189.16 248.532 189.16H280.44C282.639 189.16 284.843 190.812 284.843 193.563V242.525C284.843 244.723 286.495 246.928 289.246 246.928C290.345 246.928 291.444 246.375 291.997 245.828C300.797 238.674 311.249 234.824 322.253 234.824C357.459 234.824 381.114 260.677 381.114 299.734" fill="white"/>
<path fill-rule="evenodd" clip-rule="evenodd" d="M116.176 142.932C177.511 127.16 281.495 115.768 320.046 203.098C320.628 204.268 321.797 204.85 322.967 204.268C323.549 203.974 324.137 203.392 324.137 202.81C327.059 191.711 338.739 171.848 381.969 156.076C383.139 155.494 384.303 156.076 384.891 157.246C385.479 158.416 384.891 159.58 383.721 160.168C363.276 171.848 334.654 191.711 324.719 215.66C324.719 215.66 324.137 218.582 322.673 215.954C322.673 215.954 275.94 121.029 117.046 147.024C115.876 147.024 115 145.854 115 144.69C115 144.108 115.582 143.52 116.17 142.938" fill="#FBDD46"/>
</g>
<defs>
<clipPath id="clip0_3046_2105">
<rect width="500" height="500" fill="white"/>
</clipPath>
</defs>
</svg>
