<?xml version="1.0" encoding="UTF-8"?>
<svg width="500" height="500" fill="none" version="1.1" viewBox="0 0 500 500" xmlns="http://www.w3.org/2000/svg">
 <g clip-path="url(#clip0_3046_2105)">
  <rect width="500" height="500" rx="8" fill="#5F2781"/>
  <g transform="matrix(1.5 0 0 1.5 -125.03 -123.75)" clip-rule="evenodd" fill-rule="evenodd">
   <path d="m178.15 332.2h37.404c1.652 0 2.751 0.553 3.298 2.199l13.756 22.003c1.099 2.198 0.552 4.403-1.1 6.049-0.552 0.552-1.651 0.552-2.198 0.552h-106.17c-2.198 0-4.403-1.652-4.403-4.403v-18.705c0-1.099 0.553-2.199 1.1-2.751l54.458-62.711c1.651-1.652 1.099-4.403-0.553-6.049-0.553-0.553-1.652-1.099-2.751-1.099h-45.658c-2.199 0-4.403-1.652-4.403-4.403v-22.003c0-2.199 1.652-4.403 4.403-4.403h101.22c2.198 0 4.403 1.651 4.403 4.403v18.152c0 1.099-0.553 2.199-1.1 2.751l-54.457 62.711c-1.652 1.652-1.1 4.403 0.552 6.049 0.553 1.1 1.1 1.652 2.199 1.652" fill="#fff"/>
   <path d="m340.4 298.63c0-19.252-11.551-32.455-28.058-32.455-16.506 0-27.505 13.756-27.505 32.455 0 18.7 11.551 33.008 27.505 33.008s28.058-13.756 28.058-33.008zm40.708 1.1c0 37.957-22.555 63.263-57.761 63.263-11.551 0-22.556-3.85-31.356-11.004-1.652-1.652-4.403-1.099-6.049 0.552-0.552 0.553-1.099 1.652-1.099 2.752v2.198c0 2.199-1.652 4.403-4.403 4.403h-31.908c-2.199 0-4.403-1.652-4.403-4.403v-163.93c0-2.198 1.652-4.403 4.403-4.403h31.908c2.199 0 4.403 1.652 4.403 4.403v48.962c0 2.198 1.652 4.403 4.403 4.403 1.099 0 2.198-0.553 2.751-1.1 8.8-7.154 19.252-11.004 30.256-11.004 35.206 0 58.861 25.853 58.861 64.91" fill="#fff"/>
   <path d="m116.18 142.93c61.335-15.772 165.32-27.164 203.87 60.166 0.582 1.17 1.751 1.752 2.921 1.17 0.582-0.294 1.17-0.876 1.17-1.458 2.922-11.099 14.602-30.962 57.832-46.734 1.17-0.582 2.334 0 2.922 1.17s0 2.334-1.17 2.922c-20.445 11.68-49.067 31.543-59.002 55.492 0 0-0.582 2.922-2.046 0.294 0 0-46.733-94.925-205.63-68.93-1.17 0-2.046-1.17-2.046-2.334 0-0.582 0.582-1.17 1.17-1.752" fill="#fbdd46"/>
  </g>
 </g>
 <defs>
  <clipPath id="clip0_3046_2105">
   <rect width="500" height="500" fill="#fff"/>
  </clipPath>
 </defs>
</svg>
