<svg width="500" height="500" viewBox="0 0 500 500" fill="none" xmlns="http://www.w3.org/2000/svg">
<g clip-path="url(#clip0_3045_2075)">
<rect width="500" height="500" rx="8" fill="#5F2781"/>
<path fill-rule="evenodd" clip-rule="evenodd" d="M91.6074 261.466H101.434C101.868 261.466 102.157 261.61 102.301 262.044L105.914 267.824C106.203 268.402 106.059 268.98 105.625 269.414C105.481 269.558 105.192 269.558 105.047 269.558H77.1561C76.5781 269.558 76 269.125 76 268.402V263.489C76 263.2 76.1445 262.911 76.289 262.766L90.5958 246.292C91.0293 245.858 90.8848 245.136 90.4513 244.702C90.3068 244.558 90.0178 244.413 89.7287 244.413H77.7342C77.1561 244.413 76.5781 243.979 76.5781 243.257V237.476C76.5781 236.898 77.0116 236.32 77.7342 236.32H104.325C104.903 236.32 105.481 236.754 105.481 237.476V242.245C105.481 242.534 105.336 242.823 105.192 242.968L90.8848 259.442C90.4513 259.876 90.5958 260.598 91.0293 261.032C91.1739 261.321 91.3184 261.466 91.6074 261.466" fill="white"/>
<path fill-rule="evenodd" clip-rule="evenodd" d="M128.304 250.046C128.882 250.046 129.46 249.612 129.46 248.89V248.745C129.171 245.566 126.425 243.254 123.246 243.398C120.067 243.398 117.466 245.566 116.743 248.601C116.599 249.179 116.888 249.757 117.466 250.046H117.755H128.304ZM138.577 255.828H118.056C117.478 255.828 116.9 256.261 116.9 256.84C116.9 256.984 116.9 257.129 117.044 257.273C118.2 260.163 121.09 262.042 124.27 261.897C126.871 261.897 129.328 260.886 131.351 259.296C131.784 258.863 132.362 258.863 132.796 259.296L136.842 263.343C137.276 263.776 137.276 264.499 136.842 264.932C133.085 268.256 128.316 270.135 123.258 269.99C113.72 269.99 107.362 264.643 106.061 256.406C104.038 243.544 113.72 234.729 126.437 236.608C135.397 238.053 139.877 244.845 139.588 254.961C139.588 255.25 139.155 255.683 138.577 255.828V255.828Z" fill="white"/>
<path fill-rule="evenodd" clip-rule="evenodd" d="M154.756 240.504C156.635 238.191 159.236 236.602 162.126 236.024C162.704 235.879 163.282 236.313 163.427 237.035V237.18V244.261C163.427 244.839 162.993 245.417 162.271 245.417C156.779 245.273 153.311 248.163 152.733 252.498V268.25C152.733 268.828 152.299 269.406 151.577 269.406H143.195C142.617 269.406 142.039 268.973 142.039 268.25V237.613C142.039 237.035 142.473 236.457 143.195 236.457H151.577C152.155 236.457 152.733 236.891 152.733 237.613V239.926C152.733 240.504 153.311 241.082 153.889 241.082C154.323 240.937 154.612 240.793 154.756 240.504" fill="white"/>
<path fill-rule="evenodd" clip-rule="evenodd" d="M173.108 253.097C173.108 258.155 176.143 261.624 180.478 261.624C184.814 261.624 187.849 258.155 187.849 253.097C187.849 248.04 184.814 244.571 180.478 244.571C176.143 244.571 173.108 247.895 173.108 253.097M198.54 252.943C198.54 263.059 191.315 269.707 180.621 269.707C169.927 269.707 162.557 263.059 162.557 252.943C162.557 242.827 169.782 236.18 180.621 236.18C191.459 236.18 198.54 242.827 198.54 252.943" fill="white"/>
<path fill-rule="evenodd" clip-rule="evenodd" d="M237.844 252.647C237.844 247.589 234.809 244.121 230.474 244.121C226.138 244.121 223.248 247.734 223.248 252.647C223.248 257.561 226.283 261.318 230.474 261.318C234.664 261.318 237.844 257.705 237.844 252.647M248.546 252.934C248.546 262.905 242.621 269.553 233.372 269.553C230.338 269.553 227.447 268.541 225.135 266.663C224.702 266.229 223.979 266.374 223.545 266.807C223.401 266.952 223.256 267.241 223.256 267.53V268.108C223.256 268.686 222.823 269.264 222.1 269.264H213.719C213.141 269.264 212.562 268.83 212.562 268.108V225.043C212.562 224.465 212.996 223.887 213.719 223.887H222.1C222.678 223.887 223.256 224.32 223.256 225.043V237.904C223.256 238.483 223.69 239.061 224.413 239.061C224.702 239.061 224.991 238.916 225.135 238.772C227.447 236.893 230.193 235.881 233.083 235.881C242.332 235.881 248.546 242.673 248.546 252.934" fill="white"/>
<path fill-rule="evenodd" clip-rule="evenodd" d="M258.799 253.097C258.799 258.155 261.833 261.624 266.169 261.624C270.504 261.624 273.539 258.155 273.539 253.097C273.539 248.04 270.504 244.571 266.169 244.571C261.833 244.571 258.799 247.895 258.799 253.097M284.097 252.943C284.097 263.059 276.871 269.707 266.177 269.707C255.917 269.707 248.113 262.481 248.113 252.943C248.113 242.827 255.339 236.18 266.177 236.18C277.016 236.18 284.097 242.827 284.097 252.943" fill="white"/>
<path fill-rule="evenodd" clip-rule="evenodd" d="M318.496 261.895L310.114 267.965C309.681 268.254 308.958 268.254 308.524 267.676C308.38 267.531 308.38 267.242 308.38 267.098C308.38 266.52 307.802 265.942 307.224 265.942C306.935 265.942 306.646 266.086 306.357 266.231C304.045 268.543 300.865 269.699 297.541 269.554C290.46 269.554 285.836 264.641 285.836 256.982V237.328C285.836 236.75 286.269 236.172 286.848 236.172H295.229C295.807 236.172 296.385 236.605 296.385 237.328V253.947C296.385 257.849 298.553 260.161 301.877 260.161C305.923 260.161 308.235 256.837 308.235 252.357V237.328C308.235 236.75 308.669 236.172 309.247 236.172H317.629C318.207 236.172 318.785 236.605 318.785 237.328V260.884C318.929 261.317 318.785 261.606 318.496 261.895" fill="white"/>
<path fill-rule="evenodd" clip-rule="evenodd" d="M357.656 248.608V268.262C357.656 268.84 357.222 269.418 356.5 269.418H348.263C347.686 269.418 347.106 268.984 347.106 268.262V251.498C347.106 247.596 344.796 245.284 341.326 245.284C337.424 245.284 335.112 248.03 334.68 251.932V267.105C334.68 267.683 334.246 268.262 333.524 268.262C333.235 268.262 333.089 268.117 332.801 268.117L324.418 262.047C324.13 261.903 323.984 261.469 323.984 261.18V237.625C323.984 237.047 324.418 236.469 325.14 236.469H333.524C334.1 236.469 334.68 236.902 334.68 237.625V238.636C334.68 239.214 335.112 239.792 335.834 239.792C336.125 239.792 336.414 239.648 336.557 239.503C339.015 237.191 342.338 236.035 345.661 236.035C352.887 236.035 357.656 240.949 357.656 248.608" fill="white"/>
<path fill-rule="evenodd" clip-rule="evenodd" d="M390.172 244.128L384.392 247.596C383.958 247.885 383.382 247.741 382.947 247.452C381.357 245.718 379.189 244.706 376.879 244.706C372.831 244.706 369.941 248.03 369.941 252.943C369.941 257.857 372.831 261.325 376.879 261.325C379.334 261.469 381.648 260.313 383.093 258.435C383.382 258.001 384.104 257.857 384.538 258.146L390.318 261.614C390.895 261.903 391.041 262.626 390.75 263.059C387.86 267.25 382.802 269.707 376.444 269.707C366.328 269.707 359.537 263.059 359.537 252.943C359.537 242.827 366.474 236.035 376.59 236.035C382.659 236.035 387.571 238.347 390.607 242.394C390.75 243.116 390.607 243.694 390.172 244.128" fill="white"/>
<path fill-rule="evenodd" clip-rule="evenodd" d="M412.137 250.052C412.715 250.052 413.293 249.619 413.293 248.896V248.751C413.006 245.572 410.259 243.26 407.079 243.404C403.9 243.404 401.299 245.572 400.576 248.607C400.432 249.185 400.722 249.763 401.299 250.052H401.588H412.137ZM422.401 255.828H401.879C401.301 255.828 400.724 256.261 400.724 256.84C400.724 256.984 400.724 257.129 400.867 257.273C402.023 260.163 404.914 262.042 408.093 261.897C410.694 261.897 413.151 260.886 415.175 259.296C415.608 258.863 416.186 258.863 416.621 259.296L420.665 263.343C421.099 263.776 421.099 264.499 420.665 264.932C416.908 268.256 412.139 270.135 407.081 269.99C397.543 269.99 391.185 264.643 389.886 256.406C387.861 243.544 397.543 234.729 410.261 236.608C419.22 238.053 423.7 244.845 423.411 254.961C423.411 255.25 422.978 255.828 422.401 255.828V255.828Z" fill="white"/>
<path fill-rule="evenodd" clip-rule="evenodd" d="M100.992 194.405C131.34 186.601 182.786 180.965 201.862 224.175C202.151 224.753 202.729 225.042 203.307 224.753C203.596 224.608 203.885 224.319 203.885 224.03C205.33 218.539 211.111 208.712 232.499 200.908C233.077 200.619 233.655 200.908 233.944 201.486C234.233 202.064 233.944 202.642 233.366 202.931C223.25 208.712 209.088 218.539 204.174 230.389C204.174 230.389 203.885 231.834 203.163 230.533C203.163 230.533 180.041 183.566 101.426 196.428C100.848 196.428 100.414 195.85 100.414 195.272C100.414 194.983 100.703 194.694 100.992 194.405" fill="#FBDD46"/>
<path fill-rule="evenodd" clip-rule="evenodd" d="M287.99 178.643L275.851 191.071C275.561 191.36 275.129 191.505 274.695 191.36L258.653 184.712C258.076 184.423 257.787 183.845 258.076 183.267C258.219 182.978 258.51 182.689 258.942 182.545L286.979 176.764C287.555 176.62 288.135 176.909 288.278 177.487C288.424 177.92 288.278 178.354 287.99 178.643M257.07 207.839L252.735 186.74C252.59 186.162 253.024 185.584 253.6 185.44H254.18L274.99 194.11C275.423 194.255 275.857 194.255 276.146 193.821L292.042 177.781C292.476 177.347 293.198 177.347 293.63 177.781C293.776 177.925 293.921 178.07 293.921 178.359L297.243 193.821L295.366 173.012C295.366 172.434 294.786 172 294.21 172H294.064L250.276 180.96C249.7 181.104 249.266 181.682 249.411 182.26L255.191 210.585C255.334 211.163 255.914 211.597 256.491 211.452L297.677 203.07L258.371 208.706C257.793 208.706 257.213 208.417 257.07 207.839" fill="white"/>
</g>
<defs>
<clipPath id="clip0_3045_2075">
<rect width="500" height="500" fill="white"/>
</clipPath>
</defs>
</svg>
