<?xml version="1.0" encoding="UTF-8"?>
<svg width="500" height="250" fill="none" version="1.1" viewBox="0 0 500 250" xmlns="http://www.w3.org/2000/svg">
 <rect width="500" height="250" rx="8" fill="#5f2781"/>
 <g transform="translate(0,-100)" clip-path="url(#clip0_3045_2075)" clip-rule="evenodd" fill-rule="evenodd">
  <g fill="#fff">
   <path d="m91.607 261.47h9.8266c0.434 0 0.723 0.144 0.867 0.578l3.613 5.78c0.289 0.578 0.145 1.156-0.289 1.59-0.144 0.144-0.433 0.144-0.578 0.144h-27.891c-0.578 0-1.1561-0.433-1.1561-1.156v-4.913c0-0.289 0.1445-0.578 0.289-0.723l14.307-16.474c0.4335-0.434 0.289-1.156-0.1445-1.59-0.1445-0.144-0.4335-0.289-0.7226-0.289h-11.994c-0.5781 0-1.1561-0.434-1.1561-1.156v-5.781c0-0.578 0.4335-1.156 1.1561-1.156h26.591c0.578 0 1.156 0.434 1.156 1.156v4.769c0 0.289-0.145 0.578-0.289 0.723l-14.307 16.474c-0.4335 0.434-0.289 1.156 0.1445 1.59 0.1446 0.289 0.2891 0.434 0.5781 0.434"/>
   <path d="m128.3 250.05c0.578 0 1.156-0.434 1.156-1.156v-0.145c-0.289-3.179-3.035-5.491-6.214-5.347-3.179 0-5.78 2.168-6.503 5.203-0.144 0.578 0.145 1.156 0.723 1.445h0.289zm10.273 5.782h-20.521c-0.578 0-1.156 0.433-1.156 1.012 0 0.144 0 0.289 0.144 0.433 1.156 2.89 4.046 4.769 7.226 4.624 2.601 0 5.058-1.011 7.081-2.601 0.433-0.433 1.011-0.433 1.445 0l4.046 4.047c0.434 0.433 0.434 1.156 0 1.589-3.757 3.324-8.526 5.203-13.584 5.058-9.538 0-15.896-5.347-17.197-13.584-2.023-12.862 7.659-21.677 20.376-19.798 8.96 1.445 13.44 8.237 13.151 18.353 0 0.289-0.433 0.722-1.011 0.867z"/>
   <path d="m154.76 240.5c1.879-2.313 4.48-3.902 7.37-4.48 0.578-0.145 1.156 0.289 1.301 1.011v7.226c0 0.578-0.434 1.156-1.156 1.156-5.492-0.144-8.96 2.746-9.538 7.081v15.752c0 0.578-0.434 1.156-1.156 1.156h-8.382c-0.578 0-1.156-0.433-1.156-1.156v-30.637c0-0.578 0.434-1.156 1.156-1.156h8.382c0.578 0 1.156 0.434 1.156 1.156v2.313c0 0.578 0.578 1.156 1.156 1.156 0.434-0.145 0.723-0.289 0.867-0.578"/>
   <path d="m173.11 253.1c0 5.058 3.035 8.527 7.37 8.527 4.336 0 7.371-3.469 7.371-8.527 0-5.057-3.035-8.526-7.371-8.526-4.335 0-7.37 3.324-7.37 8.526m25.432-0.154c0 10.116-7.225 16.764-17.919 16.764s-18.064-6.648-18.064-16.764 7.225-16.763 18.064-16.763c10.838 0 17.919 6.647 17.919 16.763"/>
   <path d="m237.84 252.65c0-5.058-3.035-8.526-7.37-8.526-4.336 0-7.226 3.613-7.226 8.526 0 4.914 3.035 8.671 7.226 8.671 4.19 0 7.37-3.613 7.37-8.671m10.702 0.287c0 9.971-5.925 16.619-15.174 16.619-3.034 0-5.925-1.012-8.237-2.89-0.433-0.434-1.156-0.289-1.59 0.144-0.144 0.145-0.289 0.434-0.289 0.723v0.578c0 0.578-0.433 1.156-1.156 1.156h-8.381c-0.578 0-1.157-0.434-1.157-1.156v-43.065c0-0.578 0.434-1.156 1.157-1.156h8.381c0.578 0 1.156 0.433 1.156 1.156v12.861c0 0.579 0.434 1.157 1.157 1.157 0.289 0 0.578-0.145 0.722-0.289 2.312-1.879 5.058-2.891 7.948-2.891 9.249 0 15.463 6.792 15.463 17.053"/>
   <path d="m258.8 253.1c0 5.058 3.034 8.527 7.37 8.527 4.335 0 7.37-3.469 7.37-8.527 0-5.057-3.035-8.526-7.37-8.526-4.336 0-7.37 3.324-7.37 8.526m25.298-0.154c0 10.116-7.226 16.764-17.92 16.764-10.26 0-18.064-7.226-18.064-16.764 0-10.116 7.226-16.763 18.064-16.763 10.839 0 17.92 6.647 17.92 16.763"/>
   <path d="m318.5 261.9-8.382 6.07c-0.433 0.289-1.156 0.289-1.59-0.289-0.144-0.145-0.144-0.434-0.144-0.578 0-0.578-0.578-1.156-1.156-1.156-0.289 0-0.578 0.144-0.867 0.289-2.312 2.312-5.492 3.468-8.816 3.323-7.081 0-11.705-4.913-11.705-12.572v-19.654c0-0.578 0.433-1.156 1.012-1.156h8.381c0.578 0 1.156 0.433 1.156 1.156v16.619c0 3.902 2.168 6.214 5.492 6.214 4.046 0 6.358-3.324 6.358-7.804v-15.029c0-0.578 0.434-1.156 1.012-1.156h8.382c0.578 0 1.156 0.433 1.156 1.156v23.556c0.144 0.433 0 0.722-0.289 1.011"/>
   <path d="m357.66 248.61v19.654c0 0.578-0.434 1.156-1.156 1.156h-8.237c-0.577 0-1.157-0.434-1.157-1.156v-16.764c0-3.902-2.31-6.214-5.78-6.214-3.902 0-6.214 2.746-6.646 6.648v15.173c0 0.578-0.434 1.157-1.156 1.157-0.289 0-0.435-0.145-0.723-0.145l-8.383-6.07c-0.288-0.144-0.434-0.578-0.434-0.867v-23.555c0-0.578 0.434-1.156 1.156-1.156h8.384c0.576 0 1.156 0.433 1.156 1.156v1.011c0 0.578 0.432 1.156 1.154 1.156 0.291 0 0.58-0.144 0.723-0.289 2.458-2.312 5.781-3.468 9.104-3.468 7.226 0 11.995 4.914 11.995 12.573"/>
   <path d="m390.17 244.13-5.78 3.468c-0.434 0.289-1.01 0.145-1.445-0.144-1.59-1.734-3.758-2.746-6.068-2.746-4.048 0-6.938 3.324-6.938 8.237 0 4.914 2.89 8.382 6.938 8.382 2.455 0.144 4.769-1.012 6.214-2.89 0.289-0.434 1.011-0.578 1.445-0.289l5.78 3.468c0.577 0.289 0.723 1.012 0.432 1.445-2.89 4.191-7.948 6.648-14.306 6.648-10.116 0-16.907-6.648-16.907-16.764s6.937-16.908 17.053-16.908c6.069 0 10.981 2.312 14.017 6.359 0.143 0.722 0 1.3-0.435 1.734"/>
   <path d="m412.14 250.05c0.578 0 1.156-0.433 1.156-1.156v-0.145c-0.287-3.179-3.034-5.491-6.214-5.347-3.179 0-5.78 2.168-6.503 5.203-0.144 0.578 0.146 1.156 0.723 1.445h0.289zm10.264 5.776h-20.522c-0.578 0-1.155 0.433-1.155 1.012 0 0.144 0 0.289 0.143 0.433 1.156 2.89 4.047 4.769 7.226 4.624 2.601 0 5.058-1.011 7.082-2.601 0.433-0.433 1.011-0.433 1.446 0l4.044 4.047c0.434 0.433 0.434 1.156 0 1.589-3.757 3.324-8.526 5.203-13.584 5.058-9.538 0-15.896-5.347-17.195-13.584-2.025-12.862 7.657-21.677 20.375-19.798 8.959 1.445 13.439 8.237 13.15 18.353 0 0.289-0.433 0.867-1.01 0.867z"/>
  </g>
  <path d="m100.99 194.4c30.348-7.804 81.794-13.44 100.87 29.77 0.289 0.578 0.867 0.867 1.445 0.578 0.289-0.145 0.578-0.434 0.578-0.723 1.445-5.491 7.226-15.318 28.614-23.122 0.578-0.289 1.156 0 1.445 0.578s0 1.156-0.578 1.445c-10.116 5.781-24.278 15.608-29.192 27.458 0 0-0.289 1.445-1.011 0.144 0 0-23.122-46.967-101.74-34.105-0.578 0-1.012-0.578-1.012-1.156 0-0.289 0.289-0.578 0.578-0.867" fill="#fbdd46"/>
  <path d="m287.99 178.64-12.139 12.428c-0.29 0.289-0.722 0.434-1.156 0.289l-16.042-6.648c-0.577-0.289-0.866-0.867-0.577-1.445 0.143-0.289 0.434-0.578 0.866-0.722l28.037-5.781c0.576-0.144 1.156 0.145 1.299 0.723 0.146 0.433 0 0.867-0.288 1.156m-30.92 29.196-4.335-21.099c-0.145-0.578 0.289-1.156 0.865-1.3h0.58l20.81 8.67c0.433 0.145 0.867 0.145 1.156-0.289l15.896-16.04c0.434-0.434 1.156-0.434 1.588 0 0.146 0.144 0.291 0.289 0.291 0.578l3.322 15.462-1.877-20.809c0-0.578-0.58-1.012-1.156-1.012h-0.146l-43.788 8.96c-0.576 0.144-1.01 0.722-0.865 1.3l5.78 28.325c0.143 0.578 0.723 1.012 1.3 0.867l41.186-8.382-39.306 5.636c-0.578 0-1.158-0.289-1.301-0.867" fill="#fff"/>
 </g>
 <defs>
  <clipPath id="clip0_3045_2075">
   <rect width="500" height="500" fill="#fff"/>
  </clipPath>
 </defs>
</svg>
