<?xml version="1.0" encoding="utf-8"?>
<svg version="1.1" id="Layer_1" xmlns="http://www.w3.org/2000/svg"
     x="0px" y="0px" viewBox="0 0 311.1 114.7"
     width="100%" style="max-width:500px;height:auto;enable-background:new 0 0 311.1 114.7;" xml:space="preserve">
  <style type="text/css">
    .st0 { fill-rule:evenodd; clip-rule:evenodd; fill: #171E25; }
    .st1 { fill-rule:evenodd; clip-rule:evenodd; fill:#FBDD46; }
    @media (prefers-color-scheme: dark) {
      .st0 { fill-rule:evenodd; clip-rule:evenodd; fill: #FFFFFF; }
    }
  </style>
    <g id="Symbols">
        <g id="nav---w_x2F_-black-log-in-text" transform="translate(-168.000000, -18.000000)">
            <g id="Group-26" transform="translate(168.000000, 18.000000)">
                <path id="Fill-1" class="st0" d="M47.1,85.1h6.7c0.3,0,0.5,0.1,0.6,0.4l2.5,4c0.2,0.4,0.1,0.8-0.2,1.1c-0.1,0.1-0.3,0.1-0.4,0.1
                    H37.2c-0.4,0-0.8-0.3-0.8-0.8v-3.4c0-0.2,0.1-0.4,0.2-0.5l9.8-11.3c0.3-0.3,0.2-0.8-0.1-1.1c-0.1-0.1-0.3-0.2-0.5-0.2h-8.2
                    c-0.4,0-0.8-0.3-0.8-0.8v-4c0-0.4,0.3-0.8,0.8-0.8h18.2c0.4,0,0.8,0.3,0.8,0.8v3.3c0,0.2-0.1,0.4-0.2,0.5l-9.8,11.3
                    c-0.3,0.3-0.2,0.8,0.1,1.1C46.8,85,46.9,85.1,47.1,85.1"/>
                <path id="Fill-3" class="st0" d="M72.3,77.3c0.4,0,0.8-0.3,0.8-0.8v-0.1c-0.2-2.2-2.1-3.8-4.3-3.7c-2.2,0-4,1.5-4.5,3.6
                    c-0.1,0.4,0.1,0.8,0.5,1h0.2H72.3z M79.3,81.2H65.3c-0.4,0-0.8,0.3-0.8,0.7c0,0.1,0,0.2,0.1,0.3c0.8,2,2.8,3.3,5,3.2
                    c1.8,0,3.5-0.7,4.9-1.8c0.3-0.3,0.7-0.3,1,0l2.8,2.8c0.3,0.3,0.3,0.8,0,1.1c-2.6,2.3-5.8,3.6-9.3,3.5c-6.5,0-10.9-3.7-11.8-9.3
                    c-1.4-8.8,5.3-14.9,14-13.6c6.1,1,9.2,5.6,9,12.6C80,80.8,79.7,81.1,79.3,81.2L79.3,81.2z"/>
                <path id="Fill-5" class="st0" d="M90.4,70.7c1.3-1.6,3.1-2.7,5.1-3.1c0.4-0.1,0.8,0.2,0.9,0.7v0.1v4.9c0,0.4-0.3,0.8-0.8,0.8
                    C91.8,74,89.4,76,89,78.9v10.8c0,0.4-0.3,0.8-0.8,0.8h-5.7c-0.4,0-0.8-0.3-0.8-0.8v-21c0-0.4,0.3-0.8,0.8-0.8h5.7
                    c0.4,0,0.8,0.3,0.8,0.8v1.6c0,0.4,0.4,0.8,0.8,0.8C90.1,71,90.3,70.9,90.4,70.7"/>
                <path id="Fill-7" class="st0" d="M103,79.3c0,3.5,2.1,5.8,5.1,5.8s5.1-2.4,5.1-5.8c0-3.5-2.1-5.8-5.1-5.8S103,75.8,103,79.3
                     M120.5,79.2c0,6.9-5,11.5-12.3,11.5c-7.3,0-12.4-4.6-12.4-11.5c0-6.9,5-11.5,12.4-11.5S120.5,72.3,120.5,79.2"/>
                <path id="Fill-9" class="st0" d="M147.4,79c0-3.5-2.1-5.8-5.1-5.8s-5,2.5-5,5.8c0,3.4,2.1,5.9,5,5.9S147.4,82.5,147.4,79
                     M154.7,79.2c0,6.8-4.1,11.4-10.4,11.4c-2.1,0-4.1-0.7-5.6-2c-0.3-0.3-0.8-0.2-1.1,0.1c-0.1,0.1-0.2,0.3-0.2,0.5v0.4
                    c0,0.4-0.3,0.8-0.8,0.8h-5.7c-0.4,0-0.8-0.3-0.8-0.8V60.1c0-0.4,0.3-0.8,0.8-0.8h5.7c0.4,0,0.8,0.3,0.8,0.8v8.8
                    c0,0.4,0.3,0.8,0.8,0.8c0.2,0,0.4-0.1,0.5-0.2c1.6-1.3,3.5-2,5.4-2C150.5,67.6,154.7,72.2,154.7,79.2"/>
                <path id="Fill-11" class="st0" d="M161.8,79.3c0,3.5,2.1,5.8,5.1,5.8c3,0,5.1-2.4,5.1-5.8c0-3.5-2.1-5.8-5.1-5.8
                    C163.9,73.5,161.8,75.8,161.8,79.3 M179.1,79.2c0,6.9-5,11.5-12.3,11.5c-7,0-12.4-5-12.4-11.5c0-6.9,5-11.5,12.4-11.5
                    C174.3,67.7,179.1,72.3,179.1,79.2"/>
                <path id="Fill-13" class="st0" d="M202.7,85.4l-5.7,4.2c-0.3,0.2-0.8,0.2-1.1-0.2c-0.1-0.1-0.1-0.3-0.1-0.4
                    c0-0.4-0.4-0.8-0.8-0.8c-0.2,0-0.4,0.1-0.6,0.2c-1.6,1.6-3.8,2.4-6,2.3c-4.9,0-8-3.4-8-8.6V68.5c0-0.4,0.3-0.8,0.7-0.8h5.7
                    c0.4,0,0.8,0.3,0.8,0.8v11.4c0,2.7,1.5,4.3,3.8,4.3c2.8,0,4.4-2.3,4.4-5.4V68.5c0-0.4,0.3-0.8,0.7-0.8h5.7c0.4,0,0.8,0.3,0.8,0.8
                    v16.2C203,85,202.9,85.2,202.7,85.4"/>
                <path id="Fill-15" class="st0" d="M229.6,76.3v13.5c0,0.4-0.3,0.8-0.8,0.8h-5.6c-0.4,0-0.8-0.3-0.8-0.8V78.3c0-2.7-1.6-4.3-4-4.3
                    c-2.7,0-4.3,1.9-4.6,4.6V89c0,0.4-0.3,0.8-0.8,0.8c-0.2,0-0.3-0.1-0.5-0.1l-5.7-4.2c-0.2-0.1-0.3-0.4-0.3-0.6V68.7
                    c0-0.4,0.3-0.8,0.8-0.8h5.7c0.4,0,0.8,0.3,0.8,0.8v0.7c0,0.4,0.3,0.8,0.8,0.8c0.2,0,0.4-0.1,0.5-0.2c1.7-1.6,4-2.4,6.2-2.4
                    C226.3,67.7,229.6,71,229.6,76.3"/>
                <path id="Fill-17" class="st0" d="M251.8,73.2l-4,2.4c-0.3,0.2-0.7,0.1-1-0.1c-1.1-1.2-2.6-1.9-4.2-1.9c-2.8,0-4.8,2.3-4.8,5.6
                    s2,5.7,4.8,5.7c1.7,0.1,3.3-0.7,4.3-2c0.2-0.3,0.7-0.4,1-0.2l4,2.4c0.4,0.2,0.5,0.7,0.3,1c-2,2.9-5.4,4.6-9.8,4.6
                    c-6.9,0-11.6-4.6-11.6-11.5c0-6.9,4.8-11.6,11.7-11.6c4.2,0,7.5,1.6,9.6,4.4C252.2,72.5,252.1,72.9,251.8,73.2"/>
                <path id="Fill-19" class="st0" d="M266.9,77.3c0.4,0,0.8-0.3,0.8-0.8v-0.1c-0.2-2.2-2.1-3.8-4.3-3.7c-2.2,0-4,1.5-4.5,3.6
                    c-0.1,0.4,0.1,0.8,0.5,1h0.2H266.9z M273.9,81.2h-14.1c-0.4,0-0.8,0.3-0.8,0.7c0,0.1,0,0.2,0.1,0.3c0.8,2,2.8,3.3,5,3.2
                    c1.8,0,3.5-0.7,4.9-1.8c0.3-0.3,0.7-0.3,1,0l2.8,2.8c0.3,0.3,0.3,0.8,0,1.1c-2.6,2.3-5.8,3.6-9.3,3.5c-6.5,0-10.9-3.7-11.8-9.3
                    c-1.4-8.8,5.3-14.9,14-13.6c6.1,1,9.2,5.6,9,12.6C274.6,80.8,274.3,81.2,273.9,81.2L273.9,81.2z"/>
                <path id="Fill-21" class="st1" d="M53.6,39.1c20.8-5.4,56.1-9.2,69.2,20.4c0.2,0.4,0.6,0.6,1,0.4c0.2-0.1,0.4-0.3,0.4-0.5
                    c1-3.8,5-10.5,19.6-15.9c0.4-0.2,0.8,0,1,0.4c0.2,0.4,0,0.8-0.4,1c-6.9,4-16.6,10.7-20,18.8c0,0-0.2,1-0.7,0.1
                    c0,0-15.9-32.2-69.8-23.4c-0.4,0-0.7-0.4-0.7-0.8C53.2,39.5,53.4,39.3,53.6,39.1"/>
                <g id="Group-25" transform="translate(77.608696, 0.525261)">
                    <path id="Fill-23" class="st0" d="M104.2,27.8l-8.3,8.5c-0.2,0.2-0.5,0.3-0.8,0.2l-11-4.6c-0.4-0.2-0.6-0.6-0.4-1
                        c0.1-0.2,0.3-0.4,0.6-0.5l19.2-4c0.4-0.1,0.8,0.1,0.9,0.5C104.5,27.3,104.4,27.6,104.2,27.8 M83,47.8l-3-14.5
                        c-0.1-0.4,0.2-0.8,0.6-0.9H81l14.3,5.9c0.3,0.1,0.6,0.1,0.8-0.2l10.9-11c0.3-0.3,0.8-0.3,1.1,0c0.1,0.1,0.2,0.2,0.2,0.4
                        l2.3,10.6l-1.3-14.3c0-0.4-0.4-0.7-0.8-0.7h-0.1l-30,6.1c-0.4,0.1-0.7,0.5-0.6,0.9l4,19.4c0.1,0.4,0.5,0.7,0.9,0.6l28.2-5.7
                        l-27,3.9C83.5,48.4,83.1,48.2,83,47.8"/>
                </g>
            </g>
        </g>
    </g>
</svg>
