<svg width="30" height="26" viewBox="0 0 30 26" fill="none" xmlns="http://www.w3.org/2000/svg">
<path fill-rule="evenodd" clip-rule="evenodd" d="M7.32567 21.8411H11.3085C11.4842 21.8411 11.6014 21.8997 11.6599 22.0754L13.1242 24.4183C13.2413 24.6525 13.1828 24.8868 13.0071 25.0625C12.9485 25.1211 12.8313 25.1211 12.7728 25.1211H1.46857C1.23428 25.1211 1 24.9454 1 24.6525V22.6611C1 22.544 1.05857 22.4269 1.11714 22.3683L6.91567 15.6912C7.09139 15.5155 7.03282 15.2226 6.8571 15.0469C6.79853 14.9883 6.68139 14.9298 6.56425 14.9298H1.70285C1.46857 14.9298 1.23428 14.754 1.23428 14.4612V12.1183C1.23428 11.8841 1.41 11.6498 1.70285 11.6498H12.4799C12.7142 11.6498 12.9485 11.8255 12.9485 12.1183V14.0512C12.9485 14.1683 12.8899 14.2855 12.8313 14.344L7.03282 21.0211C6.8571 21.1969 6.91567 21.4897 7.09139 21.6654C7.14996 21.7826 7.20853 21.8411 7.32567 21.8411Z" fill="white"/>
<path fill-rule="evenodd" clip-rule="evenodd" d="M24.5997 18.2686C24.5997 16.2186 23.3697 14.8129 21.6125 14.8129C19.8554 14.8129 18.684 16.2771 18.684 18.2686C18.684 20.26 19.914 21.7828 21.6125 21.7828C23.3111 21.7828 24.5997 20.3185 24.5997 18.2686ZM28.9339 18.3857C28.9339 22.4271 26.5325 25.1214 22.784 25.1214C21.554 25.1214 20.3825 24.7114 19.4454 23.9499C19.2697 23.7742 18.9768 23.8328 18.8011 24.0085C18.7426 24.0671 18.684 24.1842 18.684 24.3014V24.5357C18.684 24.7699 18.5083 25.0042 18.2154 25.0042H14.8183C14.584 25.0042 14.3497 24.8285 14.3497 24.5357V7.08148C14.3497 6.8472 14.5254 6.61292 14.8183 6.61292H18.2154C18.4497 6.61292 18.684 6.78863 18.684 7.08148V12.2943C18.684 12.5286 18.8597 12.7629 19.1526 12.7629C19.2697 12.7629 19.3868 12.7043 19.4454 12.6457C20.3825 11.8843 21.4954 11.4743 22.6668 11.4743C26.4154 11.4743 28.9339 14.2271 28.9339 18.3857Z" fill="white"/>
<path fill-rule="evenodd" clip-rule="evenodd" d="M0.726658 1.69094C7.25734 0.0116234 18.3284 -1.20122 22.4334 8.09723C22.4956 8.22162 22.62 8.28382 22.7444 8.22162C22.8066 8.19052 22.8688 8.12833 22.8688 8.06613C23.1798 6.88439 24.4237 4.76969 29.0263 3.09037C29.1507 3.02818 29.2751 3.09037 29.3373 3.21477C29.3995 3.33916 29.3373 3.46355 29.2129 3.52575C27.036 4.76969 23.9883 6.88439 22.931 9.43446C22.931 9.43446 22.8688 9.74545 22.7133 9.46556C22.7133 9.46556 17.7375 -0.641445 0.819954 2.12632C0.69556 2.12632 0.602264 2.00193 0.602264 1.87753C0.602264 1.81534 0.664461 1.75314 0.726658 1.69094Z" fill="#FBDD46"/>
</svg>
